<svg id="Layer_1" data-name="Layer 1" xmlns="http://www.w3.org/2000/svg" viewBox="0 0 194 142"><defs><style>.cls-1{fill:#bae269;}.cls-2{fill:#365c1c;}.cls-3{fill:#6bb245;}.cls-4{fill:#edf8ce;}</style></defs><title>Artboard 1</title><path class="cls-1" d="M74.73,35.72c7-.13,7,0,14-.09s7-.1,14-.22,7,.06,14-.07c1.21,0,3.09.54,3,1.75-.15,5.17-.16,5.17-.31,10.35,0,1.2-2,2.18-3.15,2.11-6.83-.43-6.88.44-13.7,0s-6.81-.82-13.63-1.24-6.83-.38-13.66-.8c-1-.06-1.48-1.51-1.58-2.55-.34-3.52-.9-3.46-1.24-7A2.25,2.25,0,0,1,74.73,35.72Z"/><path class="cls-2" d="M78.33,50.25c8.73.2,8.72.46,17.45.65s8.71,1,17.44,1.17c1.17,0,2.3,1.52,2.25,3.56-.12,4.5-.49,11.74-.73,15.3-.09,1.22-1,2-1.67,2-2.79-.13-9.48-1.27-17-1.11-7.32.15-14.57-1.08-17-1.19-.49,0-1.75.1-1.8-.75-.18-3.18-1.08-10.62-1.33-15C75.8,52.8,77.13,50.23,78.33,50.25Z"/><path class="cls-3" d="M81.53,72.82c7.18.35,7.14,1.22,14.32,1.56s7.21-.21,14.39.14c1.6.07,3.45,1.79,2.86,3-1.16,2.38-2.61,1.67-3.77,4-.37.76-.64,1.15-1.65,1.08-6.09-.42-6.08-.54-12.17-1s-6.18.89-12.28.47c-.9-.06-1.52-1.39-1.84-2.09-1-2.24-.8-2.34-1.82-4.58A1.89,1.89,0,0,1,81.53,72.82Z"/><path class="cls-3" d="M117.77,5.17a.87.87,0,0,1,.61,1.51A10.25,10.25,0,0,0,116,9.6a25.86,25.86,0,0,0-1.6,4.42A29.07,29.07,0,0,0,113,18.54c-.25,1.77-.47,3.21-1.3,4.13a7.12,7.12,0,0,1-4,1.74,15.45,15.45,0,0,1-4.32.26,1.35,1.35,0,0,1-.47-.14,1,1,0,0,1-.53-1.11,20,20,0,0,1,1.27-4.48,34,34,0,0,1,2.76-4.83,13.37,13.37,0,0,1,3.46-3.28.15.15,0,0,0,0-.24c-.1-.11-.24,0-.26,0a12,12,0,0,0-3.54,2.49,19.15,19.15,0,0,0-3.41,4.23,48.94,48.94,0,0,0-2.47,4.77,40.22,40.22,0,0,0-1.52,4.68,19.46,19.46,0,0,0-.76,5.44,1,1,0,0,1-.74.89,3.2,3.2,0,0,1-1.9-.06.94.94,0,0,1-.69-.91,22,22,0,0,1,.6-5.53,14.82,14.82,0,0,1,2.13-4.39,1,1,0,0,0,0-1,6.33,6.33,0,0,1-.52-4.78c.34-1.67.45-3.13,1.78-4.62a14.53,14.53,0,0,1,4.18-3.17,25.8,25.8,0,0,1,4.9-2.13,39.82,39.82,0,0,1,5.29-.8C114.51,5.45,116.09,5.25,117.77,5.17Z"/><path class="cls-4" d="M18.13,122.09c0,3.47-3.18,4.34-5,4.39h0c-1.78,0-4.91-.92-4.91-4.39,0-.53.32-9.87.32-11.17,0-7.66-3.08-6-2.66-7.32.42-1.54,2.94-3.42,5.56-3.42,3.79,0,6.5,2.79,6.5,7.32C17.94,109.33,18.13,121.56,18.13,122.09Z"/><path class="cls-4" d="M50.49,123.06c-.51,1.49-3,3.37-5.65,3.37-3.75,0-6.88-2.79-6.88-7.32v-9.4c0-4.81-4.72-3.13-4.77,2.56,0,1.64.19,9.29.19,9.78,0,3.46-3.14,4.33-4.91,4.38h0c-1.78-.05-5-.92-5-4.38,0-.53.33-9.83.33-11.13,0-7.66-3.13-6-2.67-7.32.38-1.54,2.9-3.42,5.52-3.42a6.31,6.31,0,0,1,6.32,5.2h.28c2-3.81,5.33-5.2,7.71-5.2,3.51,0,6.46,3.13,6.46,7.94,0,2,0,4,0,7.57C47.36,123.35,51,121.71,50.49,123.06Z"/><path class="cls-4" d="M80.47,123.06c-.47,1.54-3,3.42-5.61,3.42a6.29,6.29,0,0,1-6.31-5.35h-.1c-1.63,3.08-4.11,5.35-7.34,5.35-5.89,0-9.12-6.7-9.12-13.15s3.18-13.06,9.35-13.06c3.18,0,5.43,1.79,6.88,4.39h.09c0-2-.14-9.69-.14-10.17,0-3.47,3.18-4.38,5-4.38h0c1.83,0,5,.91,5,4.38,0,.53-.18,10.74-.18,13.49v7.76C78.09,123.39,80.94,121.76,80.47,123.06Zm-11.88-9.73c0-3.62-1.21-6.55-3.5-6.55s-3.56,2.93-3.56,6.55,1.26,6.5,3.56,6.5S68.59,116.94,68.59,113.33Z"/><path class="cls-4" d="M107.93,116c0,7.56,3.18,5.92,2.71,7.22-.47,1.54-3,3.42-5.61,3.42a6.22,6.22,0,0,1-6.32-5.25h-.18c-1.59,3-4.07,5.2-7.25,5.2-5.9,0-9.17-6.69-9.17-13.15s3.27-13,9.4-13a7.71,7.71,0,0,1,6.83,4.33h.14c0-2.74,2.34-4.23,4.86-4.33,1.78,0,5,1,5,4.38C108.3,105.86,107.93,114,107.93,116Zm-9.17-2.56c0-3.61-1.22-6.55-3.51-6.55s-3.51,2.94-3.51,6.55,1.22,6.51,3.51,6.51S98.76,117,98.76,113.42Z"/><path class="cls-4" d="M140.43,113.38c0,6.59-3.23,13.05-9.35,13.05a7.59,7.59,0,0,1-6.74-4.09h-.23c0,2.64.14,9.82.14,10.26,0,3.46-3.18,4.33-5,4.38h0c-1.83,0-5-.92-5-4.38,0-.53.14-10.07.14-12.63v-9c0-7.66-2.72-6-2.34-7.33.47-1.54,3-3.42,5.61-3.42a6.31,6.31,0,0,1,6.31,5.21h.19c1.59-3,4.07-5.21,7.25-5.21C137.2,100.22,140.43,106.92,140.43,113.38Zm-9.59,0c0-3.62-1.21-6.51-3.5-6.51s-3.51,2.89-3.51,6.51,1.21,6.55,3.51,6.55S130.84,117,130.84,113.38Z"/><path class="cls-4" d="M155.68,126.62a13.1,13.1,0,0,1,0-26.2,13.1,13.1,0,1,1,0,26.2Zm0-5.44c2.8,0,3.88-3.42,3.93-7.66s-1.22-7.66-3.93-7.66-3.88,3.52-3.84,7.66S153,121.18,155.68,121.18Z"/><path class="cls-4" d="M186.82,122c-1.26,2.6-4.77,4.38-8.13,4.38a8.64,8.64,0,0,1-4.17-1.1,7.28,7.28,0,0,1-3.18-6.46V105.33h-.79c-1.5,0-1.78-1.44-1.78-2.26v0c0-.82.28-2.27,1.78-2.27h.7c0-1.1-.05-2.16-.05-2.4,0-3.42,3.09-4.24,4.87-4.92h0c1.78-.62,4.87-1.54,4.87,1.93,0,.53-.19,5.15-.19,5.44l4.12,0c1.21,0,1.91,1.06,1.91,2.32a2,2,0,0,1-1.91,2.26h-4.12v10s.05,1.83.1,2.31c.6,3.9,3.5,3,5.33,3C187.06,120.7,187.15,121.32,186.82,122Z"/><ellipse class="cls-4" cx="11.98" cy="93.79" rx="5.29" ry="4.93"/></svg>