<svg id="Layer_1" data-name="Layer 1" xmlns="http://www.w3.org/2000/svg" viewBox="0 0 194 142"><defs><style>.cls-1{fill:#bae269;}.cls-2{fill:#365c1c;}.cls-3{fill:#6bb245;}.cls-4{fill:#237e4f;}</style></defs><title>Artboard 1</title><path class="cls-1" d="M74.28,34.9c7.21-.13,7.21,0,14.43-.09s7.21-.1,14.43-.23,7.21.07,14.43-.07c1.25,0,3.19.55,3.15,1.81-.15,5.34-.16,5.34-.32,10.68,0,1.24-2,2.25-3.25,2.17-7.05-.43-7.1.46-14.15,0s-7-.84-14.06-1.28-7-.39-14.1-.82c-1.08-.07-1.53-1.56-1.63-2.63-.35-3.64-.94-3.58-1.29-7.22A2.33,2.33,0,0,1,74.28,34.9Z"/><path class="cls-2" d="M78,49.9c9,.2,9,.48,18,.67s9,1,18,1.21c1.21,0,2.38,1.57,2.32,3.68-.12,4.64-.5,12.11-.75,15.79a2.06,2.06,0,0,1-1.72,2.08C111,73.2,104.07,72,96.3,72.18c-7.55.16-15-1.1-17.55-1.22-.51,0-1.81.1-1.86-.78-.18-3.28-1.11-11-1.38-15.5C75.39,52.54,76.76,49.88,78,49.9Z"/><path class="cls-3" d="M81.29,73.2c7.42.36,7.38,1.25,14.79,1.61s7.44-.22,14.86.14c1.64.08,3.56,1.85,3,3.09-1.2,2.46-2.69,1.73-3.9,4.18-.38.79-.66,1.18-1.69,1.11-6.29-.43-6.28-.55-12.57-1s-6.38.92-12.67.49c-.94-.06-1.58-1.43-1.9-2.16-1.06-2.31-.83-2.41-1.88-4.72A2,2,0,0,1,81.29,73.2Z"/><path class="cls-3" d="M118.71,3.37a.89.89,0,0,1,.63,1.55,10.84,10.84,0,0,0-2.5,3,26.88,26.88,0,0,0-1.65,4.56,29.26,29.26,0,0,0-1.46,4.67c-.25,1.82-.48,3.31-1.34,4.26a7.23,7.23,0,0,1-4.1,1.79,16.28,16.28,0,0,1-4.45.28,1.54,1.54,0,0,1-.5-.15,1,1,0,0,1-.53-1.15,19.71,19.71,0,0,1,1.31-4.62,34.08,34.08,0,0,1,2.84-5,14,14,0,0,1,3.57-3.4.15.15,0,0,0,0-.24.2.2,0,0,0-.26,0,12.57,12.57,0,0,0-3.66,2.57,19.77,19.77,0,0,0-3.52,4.36,53.46,53.46,0,0,0-2.55,4.93c-.91,1.92-.92,3-1.57,4.84a20,20,0,0,0-.78,5.61,1,1,0,0,1-.76.92,3.34,3.34,0,0,1-2-.07,1,1,0,0,1-.71-.94,22.74,22.74,0,0,1,.62-5.7,15.11,15.11,0,0,1,2.2-4.54,1,1,0,0,0,0-1.06,6.46,6.46,0,0,1-.54-4.93c.35-1.72.47-3.24,1.85-4.77a14.71,14.71,0,0,1,4.31-3.27,26.46,26.46,0,0,1,5-2.2,40.63,40.63,0,0,1,5.47-.83A49.4,49.4,0,0,1,118.71,3.37Z"/><path class="cls-4" d="M15.85,124.06c0,3.58-3.28,4.48-5.11,4.53h-.05c-1.84-.05-5.07-1-5.07-4.53,0-.54.34-10.19.34-11.53,0-7.91-3.19-6.22-2.76-7.56.44-1.59,3.05-3.53,5.75-3.53,3.91,0,6.71,2.88,6.71,7.56C15.66,110.89,15.85,123.52,15.85,124.06Z"/><path class="cls-4" d="M49.26,125.06c-.53,1.54-3.14,3.48-5.84,3.48-3.86,0-7.1-2.88-7.1-7.56v-9.7c0-5-4.87-3.23-4.92,2.64,0,1.69.19,9.6.19,10.09,0,3.58-3.23,4.48-5.07,4.53h-.05c-1.83,0-5.11-.95-5.11-4.53,0-.54.33-10.14.33-11.48,0-7.91-3.23-6.22-2.75-7.56.39-1.59,3-3.53,5.7-3.53a6.53,6.53,0,0,1,6.52,5.37h.29c2.12-3.93,5.5-5.37,8-5.37,3.62,0,6.67,3.23,6.67,8.2,0,2.09,0,4.08,0,7.81C46,125.36,49.75,123.67,49.26,125.06Z"/><path class="cls-4" d="M80.21,125.06c-.49,1.59-3.09,3.53-5.8,3.53a6.48,6.48,0,0,1-6.51-5.52h-.1c-1.69,3.18-4.25,5.52-7.58,5.52-6.08,0-9.41-6.91-9.41-13.58s3.28-13.47,9.65-13.47c3.28,0,5.6,1.84,7.1,4.52h.1c0-2-.15-10-.15-10.49,0-3.58,3.28-4.52,5.17-4.52h0c1.89,0,5.22.94,5.22,4.52,0,.55-.19,11.09-.19,13.92v8C77.75,125.41,80.69,123.72,80.21,125.06ZM67.94,115c0-3.73-1.25-6.76-3.62-6.76s-3.67,3-3.67,6.76,1.31,6.72,3.67,6.72S67.94,118.74,67.94,115Z"/><path class="cls-4" d="M108.55,117.75c0,7.81,3.28,6.12,2.8,7.46-.48,1.59-3.09,3.53-5.8,3.53A6.4,6.4,0,0,1,99,123.32h-.2c-1.64,3.13-4.2,5.37-7.48,5.37-6.08,0-9.46-6.91-9.46-13.58s3.38-13.47,9.7-13.47c3.24,0,5.55,1.84,7.05,4.47h.15c0-2.83,2.41-4.37,5-4.47,1.83,0,5.11,1,5.11,4.52C108.93,107.31,108.55,115.71,108.55,117.75Zm-9.46-2.64c0-3.73-1.26-6.76-3.63-6.76s-3.62,3-3.62,6.76,1.26,6.72,3.62,6.72S99.09,118.84,99.09,115.11Z"/><path class="cls-4" d="M142.1,115.06c0,6.82-3.33,13.48-9.65,13.48a7.82,7.82,0,0,1-7-4.23h-.24c0,2.74.15,10.15.15,10.59,0,3.58-3.29,4.48-5.17,4.53h0c-1.88-.05-5.21-1-5.21-4.53,0-.54.14-10.39.14-13v-9.3c0-7.91-2.8-6.22-2.41-7.56.48-1.59,3.09-3.53,5.79-3.53a6.52,6.52,0,0,1,6.52,5.37h.19c1.64-3.13,4.2-5.37,7.49-5.37C138.77,101.49,142.1,108.4,142.1,115.06Zm-9.9,0c0-3.73-1.25-6.71-3.62-6.71s-3.62,3-3.62,6.71,1.26,6.77,3.62,6.77S132.2,118.79,132.2,115.06Z"/><path class="cls-4" d="M157.84,128.74a13.53,13.53,0,0,1,0-27.05,13.53,13.53,0,1,1,0,27.05Zm0-5.62c2.9,0,4-3.53,4.06-7.91s-1.26-7.9-4.06-7.9-4,3.63-4,7.9S155,123.12,157.84,123.12Z"/><path class="cls-4" d="M190,123.91c-1.3,2.69-4.92,4.53-8.4,4.53a9,9,0,0,1-4.29-1.14,7.51,7.51,0,0,1-3.29-6.67V106.76h-.82c-1.54,0-1.83-1.49-1.83-2.34v0c0-.84.29-2.33,1.83-2.33h.73c0-1.15,0-2.24,0-2.49,0-3.53,3.18-4.38,5-5.07h.05c1.83-.65,5-1.59,5,2,0,.54-.2,5.32-.2,5.62l4.25,0a2.12,2.12,0,0,1,2,2.38,2.09,2.09,0,0,1-2,2.34h-4.25V117.1s.05,1.89.1,2.39c.63,4,3.62,3.13,5.51,3.13C190.23,122.62,190.33,123.27,190,123.91Z"/><ellipse class="cls-4" cx="9.51" cy="94.84" rx="5.46" ry="5.09"/></svg>